<?xml version="1.0" encoding="UTF-8"?>
<svg width="512px" height="512px" viewBox="0 0 512 512" version="1.1" xmlns="http://www.w3.org/2000/svg" xmlns:xlink="http://www.w3.org/1999/xlink">
    <!-- Generator: Sketch 60.1 (88133) - https://sketch.com -->
    <title>Dinor-Appicon 512x512</title>
    <desc>Created with Sketch.</desc>
    <g id="Dinor-Appicon-512x512" stroke="none" stroke-width="1" fill="none" fill-rule="evenodd">
        <rect fill="#FFFFFF" x="0" y="0" width="512" height="512"></rect>
        <g id="Dinor-Logo" transform="translate(44.000000, 148.000000)" fill-rule="nonzero">
            <g id="SVGID_1_-link" transform="translate(105.000000, 141.500000)" fill="#9E7C24">
                <path d="M132.740909,2.42045455 C132.740909,2.42045455 126.9239,3.14659091 0.403958944,29.1261364 C0.403958944,29.1261364 29.8929619,31.1431818 95.4958944,25.9795455 C186.709824,22.2681818 208.685191,55.7511364 222.015836,70.5965909 C222.823754,72.3715909 284.952639,52.1204545 274.045748,40.7443182 C274.045748,40.7443182 243.102493,0.161363636 165.623167,0.161363636 C155.524194,0.0806818182 144.53651,0.806818182 132.740909,2.42045455" id="SVGID_1_"></path>
            </g>
            <g id="SVGID_3_-link" transform="translate(0.000000, 53.500000)" fill="#9E7C24">
                <path d="M20.275,101.916438 C56.0591633,126.728767 100.244124,116.30274 120.680677,109.756164 L216.643625,87.0452055 C216.643625,87.0452055 230.860359,82.1958904 273.672112,77.4273973 C345.563546,69.3452055 404.773008,112.342466 404.773008,112.342466 C376.016434,68.7794521 311.475697,63.2027397 311.475697,63.2027397 C223.671215,53.1808219 155.980179,102.40137 84.5734064,107.654795 C15.024502,112.827397 10.6625498,62.8794521 10.6625498,62.8794521 C3.55418327,28.1260274 41.0346614,0.484931507 41.0346614,0.484931507 C-22.7790837,33.3794521 3.2310757,90.1972603 20.275,101.916438" id="SVGID_3_"></path>
            </g>
            <g id="SVGID_5_-link" transform="translate(46.500000, 171.500000)" fill="#9E7C24">
                <path d="M128.359731,14.2857143 C241.727246,0.0625 268.43518,43.8571429 268.43518,43.8571429 C268.43518,43.8571429 248.666467,-7.49107143 121.581886,3.75892857 C17.3321856,13 2.48547904,2.95535714 0.468263473,0.544642857 C2.96961078,4.24107143 23.7872754,27.3839286 128.359731,14.2857143 M0.0648203593,0.0625 C0.0648203593,0.0625 0.145508982,0.223214286 0.38757485,0.544642857 C0.226197605,0.303571429 0.0648203593,0.0625 0.0648203593,0.0625 Z" id="SVGID_5_"></path>
            </g>
            <g id="Group" transform="translate(29.000000, 0.000000)">
                <path d="M17.58,23.6414815 C17.58,18.8777778 16.2885714,15.1637037 13.625,12.58 C10.9614286,9.9962963 7.24857143,8.70444444 2.40571429,8.70444444 C0.872142857,8.70444444 0.065,8.05851852 0.065,6.68592593 C0.065,5.79777778 0.387857143,5.15185185 1.03357143,4.90962963 C1.67928571,4.58666667 3.13214286,4.50592593 5.31142857,4.50592593 L16.6921429,4.66740741 C19.275,4.66740741 21.6157143,4.58666667 23.6335714,4.50592593 C26.7814286,4.34444444 31.14,3.94074074 36.6285714,3.4562963 C44.0542857,2.72962963 49.8657143,2.40666667 54.2242857,2.40666667 C71.1742857,2.40666667 84.7342857,6.76666667 94.985,15.4059259 C105.235714,24.0451852 110.320714,35.5911111 110.320714,50.0437037 C110.320714,68.6140741 103.46,83.3896296 89.7385714,94.3703704 C79.6492857,102.444444 68.2685714,106.481481 55.6771429,106.481481 C53.5785714,106.481481 49.3814286,106.32 43.005,105.916296 C39.3728571,105.754815 35.7407143,105.593333 31.8664286,105.593333 C22.9878571,105.593333 17.0957143,105.835556 14.1092857,106.32 C11.7685714,106.723704 10.235,106.885185 9.42785714,106.885185 C8.29785714,106.885185 7.73285714,106.158519 7.73285714,104.705185 C7.73285714,103.655556 8.37857143,103.00963 9.58928571,102.767407 C12.6564286,102.202222 14.8357143,100.91037 15.885,98.9725926 C17.015,97.0348148 17.58,93.6437037 17.58,88.9607407 L17.58,23.6414815 L17.58,23.6414815 Z M34.8528571,19.6044444 L34.8528571,85.4081481 L35.7407143,92.1903704 C37.355,98.0037037 43.57,100.91037 54.2242857,100.91037 C65.7664286,100.91037 74.9678571,96.8733333 81.7478571,88.88 C88.5278571,80.8866667 91.9178571,70.0674074 91.9178571,56.4222222 C91.9178571,42.1311111 87.8014286,30.5044444 79.6492857,21.5422222 C71.4971429,12.58 60.9235714,8.05851852 48.0092857,8.05851852 C42.6821429,8.05851852 39.1307143,8.78518519 37.1935714,10.1577778 C35.66,11.2074074 34.8528571,14.3562963 34.8528571,19.6044444" id="Shape" fill="#000000"></path>
                <path d="M141.315,46.1681481 L141.315,88.557037 C141.315,93.6437037 142.041429,97.1962963 143.575,99.1340741 C145.108571,101.152593 147.933571,102.282963 152.05,102.525185 C153.664286,102.605926 154.552143,103.171111 154.552143,104.301481 C154.552143,105.593333 152.615,106.32 148.66,106.32 C148.175714,106.32 147.045714,106.239259 145.431429,106.077778 L139.781429,105.512593 C136.633571,105.27037 134.615714,105.108889 133.647143,105.108889 C130.983571,105.108889 127.432143,105.431852 122.912143,106.158519 C121.782143,106.32 120.975,106.481481 120.329286,106.481481 C119.28,106.481481 118.715,105.997037 118.715,105.028148 C118.715,104.382222 119.037857,103.817037 119.683571,103.494074 L122.266429,102.202222 C123.396429,101.637037 124.284286,100.345185 125.091429,98.3266667 C125.898571,96.3081481 126.221429,94.1281481 126.221429,91.8674074 L126.140714,88.7185185 L126.140714,63.3659259 C126.140714,59.4903704 125.737143,56.8259259 124.93,55.2918519 C124.122857,53.8385185 122.589286,53.0311111 120.490714,53.0311111 L118.795714,53.0311111 C117.827143,53.0311111 117.181429,52.7888889 116.858571,52.3851852 C116.697143,52.142963 116.616429,51.82 116.616429,51.3355556 C116.616429,50.0437037 118.15,49.0748148 121.217143,48.4288889 C128.804286,46.8140741 134.857857,44.3918519 139.216429,41.1622222 C139.781429,40.8392593 140.185,40.597037 140.507857,40.597037 C141.234286,40.6777778 141.557143,41.1622222 141.557143,42.0503704 L141.476429,42.6962963 C141.395714,43.2614815 141.315,44.3918519 141.315,46.1681481" id="Path" fill="#000000"></path>
                <path d="M224.37,74.6696296 L224.37,89.8488889 C224.37,93.0785185 224.531429,95.3392593 224.935,96.4696296 C225.257857,97.6807407 226.065,98.7303704 227.356429,99.78 C229.132143,101.233333 231.472857,102.121481 234.217143,102.363704 C235.750714,102.525185 236.557857,103.171111 236.557857,104.14 C236.557857,105.674074 234.782143,106.400741 231.230714,106.400741 C230.504286,106.400741 229.374286,106.32 228.002143,106.158519 L223.078571,105.593333 C220.899286,105.351111 219.123571,105.27037 217.912857,105.27037 C213.150714,105.27037 209.357143,105.593333 206.532143,106.158519 C205.402143,106.400741 204.352857,106.481481 203.545714,106.481481 C202.415714,106.481481 201.931429,105.916296 201.931429,104.866667 C201.931429,104.059259 202.496429,103.413333 203.626429,103.00963 C205.805714,102.282963 207.258571,101.071852 208.065714,99.457037 C208.792143,97.8422222 209.195714,95.1777778 209.195714,91.382963 L209.195714,73.7007407 C209.195714,66.9185185 207.823571,61.5088889 205.16,57.5525926 C202.415714,53.5962963 198.783571,51.5777778 194.102143,51.5777778 C189.905,51.5777778 186.595714,52.7081481 184.012857,55.0496296 C181.43,57.3103704 180.138571,60.2977778 180.138571,64.0118519 L180.138571,89.0414815 C180.138571,93.6437037 181.026429,96.9540741 182.721429,99.1340741 C184.416429,101.233333 187.322143,102.525185 191.438571,102.848148 C192.810714,103.00963 193.537143,103.574815 193.537143,104.543704 C193.537143,105.916296 192.649286,106.642963 190.954286,106.642963 C189.259286,106.642963 187.322143,106.481481 184.981429,106.239259 C179.331429,105.512593 175.457143,105.18963 173.277857,105.18963 C170.372143,105.18963 166.982143,105.431852 163.188571,105.997037 C161.412857,106.239259 160.121429,106.400741 159.475714,106.400741 C158.184286,106.400741 157.619286,105.916296 157.619286,104.866667 C157.619286,104.14 158.022857,103.655556 158.910714,103.251852 C161.493571,102.282963 163.107857,101.233333 163.753571,100.102963 C164.48,98.9725926 164.802857,96.9540741 164.802857,93.8859259 L164.883571,91.382963 L164.883571,64.9807407 L164.802857,62.0740741 C164.802857,58.5214815 164.399286,56.0185185 163.753571,54.6459259 C163.027143,53.2733333 161.655,52.5466667 159.717857,52.5466667 L156.247143,52.5466667 C155.762857,52.5466667 155.359286,52.3851852 155.117143,52.0622222 C154.875,51.82 154.713571,51.4162963 154.713571,50.9318519 C154.713571,49.962963 155.117143,49.317037 155.843571,48.9133333 C156.57,48.5096296 158.83,47.8637037 162.462143,46.9755556 C168.757857,45.5222222 174.004286,43.3422222 178.201429,40.4355556 C178.524286,40.1125926 178.847143,39.9511111 179.17,39.9511111 C179.735,39.8703704 180.057857,40.3548148 180.057857,41.4044444 L179.815714,45.1185185 L179.735,49.3977778 L180.219286,52.2237037 C180.380714,52.7888889 180.703571,53.1925926 181.187857,53.1925926 C181.591429,53.2733333 182.398571,52.5466667 183.609286,51.1740741 C188.21,45.602963 194.263571,42.777037 201.77,42.777037 C209.922143,42.777037 215.733571,45.1992593 219.204286,50.1244444 C222.594286,55.2111111 224.37,63.3659259 224.37,74.6696296" id="Path" fill="#000000"></path>
                <path d="M273.363571,42.9385185 C282.807143,42.9385185 290.636429,45.9259259 296.770714,51.9007407 C302.905,57.8755556 305.972143,65.5459259 305.972143,74.7503704 C305.972143,84.2777778 302.662857,92.2711111 295.963571,98.6496296 C289.264286,105.028148 280.950714,108.257778 271.022857,108.257778 C261.66,108.257778 253.911429,105.27037 247.696429,99.3762963 C241.481429,93.4014815 238.414286,85.9733333 238.414286,77.0111111 C238.414286,67.5644444 241.804286,59.5711111 248.665,52.8696296 C255.445,46.2488889 263.677857,42.9385185 273.363571,42.9385185 M269.489286,47.0562963 C264.646429,47.0562963 260.852857,49.0748148 258.027857,53.1925926 C255.202857,57.3103704 253.75,62.8007407 253.75,69.6637037 C253.75,79.1103704 255.929286,87.2651852 260.287857,94.0474074 C264.646429,100.82963 269.973571,104.220741 276.107857,104.220741 C280.789286,104.220741 284.582857,102.282963 287.569286,98.4074074 C290.555714,94.5318519 292.008571,89.6066667 292.008571,83.5511111 C292.008571,73.3777778 289.829286,64.7385185 285.470714,57.7140741 C281.112143,50.6088889 275.785,47.0562963 269.489286,47.0562963" id="Shape" fill="#000000"></path>
                <path d="M336.401429,68.6140741 L336.401429,89.6066667 C336.401429,97.5192593 340.114286,101.96 347.459286,102.928889 C348.992857,103.09037 349.8,103.736296 349.8,104.785926 C349.8,106.077778 349.235,106.723704 348.105,106.723704 C347.54,106.723704 346.813571,106.642963 346.006429,106.481481 C341.002143,105.754815 335.836429,105.351111 330.509286,105.351111 C327.684286,105.351111 325.182143,105.431852 322.922143,105.674074 L318.240714,106.158519 C317.352857,106.239259 316.545714,106.32 315.577143,106.32 C314.205,106.32 313.478571,105.674074 313.478571,104.301481 C313.478571,103.413333 314.124286,102.767407 315.335,102.444444 C319.29,101.475556 321.227143,97.7614815 321.227143,91.3022222 L321.146429,88.1533333 L321.146429,61.4281481 C321.146429,57.8755556 320.662143,55.4533333 319.774286,54.322963 C318.805714,53.1118519 316.868571,52.4659259 313.801429,52.2237037 C312.671429,52.142963 312.106429,51.5777778 312.106429,50.6088889 C312.106429,49.4785185 312.752143,48.8325926 314.124286,48.5903704 C320.985,47.5407407 326.877143,45.602963 331.72,42.8577778 L334.625714,41.1622222 C335.029286,40.92 335.432857,40.7585185 335.755714,40.7585185 C336.482143,40.7585185 336.885714,41.3237037 336.885714,42.3733333 C336.885714,42.6962963 336.805,43.422963 336.805,44.5533333 L336.562857,48.7518519 L336.24,53.4348148 L336.320714,54.2422222 C336.482143,54.9688889 336.885714,55.2918519 337.450714,55.3725926 C337.935,55.4533333 339.065,54.2422222 340.679286,51.7392593 C342.051429,49.8014815 344.069286,47.782963 346.894286,45.602963 C349.719286,43.422963 351.575714,42.3733333 352.625,42.3733333 C354.32,42.3733333 356.902857,43.6651852 360.292857,46.2488889 C363.682857,48.8325926 365.377857,50.7703704 365.458571,52.0622222 C365.458571,52.5466667 364.651429,54.2422222 363.037143,57.3103704 C360.938571,61.1859259 359.162857,63.042963 357.548571,63.042963 C356.902857,63.042963 356.337857,62.8007407 355.772857,62.3162963 L353.674286,60.4592593 C351.172143,58.1177778 348.266429,56.9066667 344.957143,56.9066667 C339.307143,56.9066667 336.401429,60.7822222 336.401429,68.6140741" id="Path" fill="#000000"></path>
                <path d="M131.387143,5.23259259 C132.759286,5.23259259 135.342143,7.49333333 138.974286,12.0955556 L143.171429,17.5859259 C144.14,18.8777778 144.705,20.0081481 144.785714,21.1385185 C144.866429,22.7533333 143.01,25.8214815 139.216429,30.342963 C135.422857,34.8644444 132.84,37.1251852 131.467857,37.1251852 C130.499286,37.1251852 129.611429,36.7214815 128.723571,35.9140741 L123.961429,30.1814815 L119.522143,25.0948148 C118.392143,23.7222222 117.827143,22.5111111 117.827143,21.622963 C117.827143,20.2503704 119.764286,17.1822222 123.8,12.4185185 C127.835714,7.65481481 130.337857,5.23259259 131.387143,5.23259259" id="Path" fill="#000000"></path>
                <path d="M369.01,86.6192593 C369.736429,85.0044444 370.705,83.5511111 371.915714,82.34 C373.126429,81.1288889 374.66,80.16 376.274286,79.5948148 C377.888571,78.8681481 379.664286,78.5451852 381.520714,78.5451852 C383.377143,78.5451852 385.152857,78.8681481 386.767143,79.5948148 C388.381429,80.2407407 389.753571,81.2096296 391.045,82.34 C392.255714,83.5511111 393.143571,85.0044444 393.950714,86.6192593 C394.677143,88.2340741 395,90.0103704 395,91.9481481 C395,93.8859259 394.677143,95.6622222 393.950714,97.3577778 C393.143571,98.9725926 392.255714,100.425926 391.045,101.637037 C389.753571,102.848148 388.381429,103.817037 386.767143,104.462963 C385.152857,105.108889 383.377143,105.431852 381.520714,105.431852 C379.664286,105.431852 377.969286,105.108889 376.274286,104.462963 C374.66,103.817037 373.126429,102.848148 371.915714,101.637037 C370.705,100.425926 369.736429,98.9725926 369.01,97.3577778 C368.283571,95.6622222 367.960714,93.9666667 367.960714,91.9481481 C367.960714,90.0103704 368.283571,88.2340741 369.01,86.6192593 M371.189286,96.4696296 C371.754286,97.8422222 372.561429,99.0533333 373.53,100.102963 C374.498571,101.152593 375.709286,101.96 377.081429,102.605926 C378.453571,103.171111 379.906429,103.494074 381.520714,103.494074 C383.054286,103.494074 384.507143,103.171111 385.879286,102.605926 C387.170714,102.040741 388.381429,101.152593 389.430714,100.102963 C390.399286,99.0533333 391.206429,97.8422222 391.771429,96.4696296 C392.336429,95.0162963 392.578571,93.4822222 392.578571,91.8674074 C392.578571,90.2525926 392.255714,88.7185185 391.771429,87.3459259 C391.206429,85.9733333 390.48,84.7622222 389.430714,83.7125926 C388.381429,82.662963 387.170714,81.8555556 385.879286,81.2903704 C384.507143,80.6444444 383.054286,80.4022222 381.520714,80.4022222 C379.987143,80.4022222 378.453571,80.7251852 377.081429,81.2903704 C375.79,81.8555556 374.579286,82.662963 373.53,83.7125926 C372.561429,84.7622222 371.754286,85.9733333 371.189286,87.3459259 C370.624286,88.7185185 370.382143,90.2525926 370.382143,91.8674074 C370.301429,93.562963 370.624286,95.097037 371.189286,96.4696296 M382.327857,84.0355556 C384.184286,84.0355556 385.556429,84.4392593 386.525,85.1659259 C387.412857,85.8925926 387.897143,87.1037037 387.897143,88.557037 C387.897143,89.9296296 387.574286,90.9792593 386.686429,91.6251852 C385.879286,92.2711111 384.910714,92.6748148 383.7,92.7555556 L388.22,99.6992593 L385.637143,99.6992593 L381.359286,92.917037 L378.695714,92.917037 L378.695714,99.6992593 L376.274286,99.6992593 L376.274286,83.9548148 L382.327857,83.9548148 L382.327857,84.0355556 Z M381.278571,91.06 C381.843571,91.06 382.327857,91.06 382.812143,90.9792593 C383.296429,90.9792593 383.780714,90.8985185 384.103571,90.737037 C384.426429,90.5755556 384.83,90.3333333 385.072143,89.9296296 C385.314286,89.5259259 385.395,89.1222222 385.395,88.4762963 C385.395,87.9111111 385.314286,87.5074074 385.072143,87.1844444 C384.910714,86.9422222 384.587857,86.7 384.265,86.4577778 C383.942143,86.2962963 383.619286,86.1348148 383.135,86.1348148 C382.731429,86.0540741 382.247143,86.0540741 381.924286,86.0540741 L378.615,86.0540741 L378.615,91.06 L381.278571,91.06 L381.278571,91.06 Z" id="Shape" fill="#000000"></path>
                <path d="M19.9207143,21.3807407 C19.9207143,16.617037 18.6292857,12.902963 15.9657143,10.3192593 C13.3021429,7.73555556 9.58928571,6.4437037 4.74642857,6.4437037 C3.21285714,6.4437037 2.40571429,5.79777778 2.40571429,4.42518519 C2.40571429,3.53703704 2.72857143,2.89111111 3.37428571,2.64888889 C4.02,2.40666667 5.47285714,2.24518519 7.65214286,2.24518519 L19.0328571,2.40666667 C21.6157143,2.40666667 23.9564286,2.32592593 25.9742857,2.24518519 C29.1221429,2.0837037 33.4807143,1.68 38.9692857,1.19555556 C46.395,0.468888889 52.2064286,0.145925926 56.565,0.145925926 C73.515,0.145925926 87.075,4.50592593 97.3257143,13.1451852 C107.576429,21.7844444 112.661429,33.4111111 112.661429,47.782963 C112.661429,66.3533333 105.800714,81.1288889 92.0792857,92.1096296 C81.99,100.183704 70.6092857,104.220741 58.0178571,104.220741 C55.9192857,104.220741 51.7221429,103.978519 45.3457143,103.655556 C41.7135714,103.494074 38.0814286,103.332593 34.2878571,103.332593 C25.4092857,103.332593 19.4364286,103.574815 16.5307143,104.059259 C14.2707143,104.462963 12.6564286,104.624444 11.8492857,104.624444 C10.7192857,104.624444 10.1542857,103.897778 10.1542857,102.444444 C10.1542857,101.394815 10.8,100.748889 12.0107143,100.506667 C15.0778571,99.9414815 17.2571429,98.6496296 18.3064286,96.7118519 C19.4364286,94.7740741 20.0014286,91.4637037 20.0014286,86.7 L20.0014286,21.3807407 L19.9207143,21.3807407 Z M37.1935714,17.3437037 L37.1935714,83.1474074 L38.0814286,89.9296296 C39.6957143,95.742963 45.9107143,98.6496296 56.565,98.6496296 C68.1071429,98.6496296 77.3085714,94.6125926 84.0885714,86.6192593 C90.8685714,78.6259259 94.2585714,67.8066667 94.2585714,54.1614815 C94.2585714,39.8703704 90.2228571,28.2437037 81.99,19.2814815 C73.8378571,10.3192593 63.2642857,5.79777778 50.35,5.79777778 C45.0228571,5.79777778 41.4714286,6.52444444 39.4535714,7.89703704 C38.0007143,8.86592593 37.1935714,12.0955556 37.1935714,17.3437037" id="Shape" fill="#E1251B"></path>
                <path d="M143.655714,43.8266667 L143.655714,86.2155556 C143.655714,91.3022222 144.382143,94.8548148 145.915714,96.8733333 C147.449286,98.8918519 150.274286,100.022222 154.390714,100.264444 C156.005,100.345185 156.892857,100.991111 156.892857,102.040741 C156.892857,103.332593 154.955714,104.059259 151.000714,104.059259 C150.516429,104.059259 149.386429,103.978519 147.772143,103.817037 L142.122143,103.251852 C139.055,103.00963 136.956429,102.848148 135.987857,102.848148 C133.324286,102.848148 129.772857,103.171111 125.252857,103.897778 C124.122857,104.14 123.315714,104.220741 122.67,104.220741 C121.620714,104.220741 121.055714,103.736296 121.055714,102.767407 C121.055714,102.121481 121.378571,101.556296 122.024286,101.233333 L124.607143,99.9414815 C125.737143,99.3762963 126.625,98.0844444 127.432143,96.0659259 C128.239286,94.0474074 128.562143,91.8674074 128.562143,89.6066667 L128.481429,86.4577778 L128.481429,61.1051852 C128.481429,57.2296296 128.077857,54.5651852 127.270714,53.0311111 C126.463571,51.5777778 124.93,50.7703704 122.831429,50.7703704 L121.136429,50.7703704 C120.167857,50.7703704 119.522143,50.5281481 119.199286,50.1244444 C119.037857,49.8822222 118.957143,49.5592593 118.957143,49.0748148 C118.957143,47.782963 120.490714,46.8140741 123.557857,46.1681481 C131.145,44.5533333 137.198571,42.1311111 141.557143,38.9014815 C142.122143,38.5785185 142.525714,38.417037 142.848571,38.417037 C143.575,38.4977778 143.897857,38.9014815 143.897857,39.8703704 L143.817143,40.5162963 C143.655714,40.92 143.655714,42.0503704 143.655714,43.8266667" id="Path" fill="#E1251B"></path>
                <path d="M226.710714,72.3281481 L226.710714,87.5074074 C226.710714,90.737037 226.872143,92.917037 227.275714,94.1281481 C227.598571,95.3392593 228.405714,96.3888889 229.697143,97.4385185 C231.472857,98.8918519 233.813571,99.78 236.557857,100.022222 C238.091429,100.264444 238.898571,100.82963 238.898571,101.798519 C238.898571,103.332593 237.122857,104.059259 233.571429,104.059259 C232.845,104.059259 231.715,103.978519 230.342857,103.817037 L225.419286,103.251852 C223.24,103.00963 221.464286,102.928889 220.253571,102.928889 C215.491429,102.928889 211.697857,103.251852 208.872857,103.817037 C207.742857,104.059259 206.693571,104.14 205.886429,104.14 C204.756429,104.14 204.191429,103.574815 204.191429,102.525185 C204.191429,101.717778 204.756429,101.071852 205.886429,100.668148 C208.065714,99.9414815 209.518571,98.7303704 210.325714,97.1155556 C211.052143,95.5007407 211.455714,92.8362963 211.455714,89.0414815 L211.455714,71.3592593 C211.455714,64.577037 210.083571,59.1674074 207.42,55.2111111 C204.675714,51.2548148 201.043571,49.2362963 196.362143,49.2362963 C192.165,49.2362963 188.775,50.3666667 186.272857,52.7081481 C183.69,54.9688889 182.398571,58.037037 182.398571,61.6703704 L182.398571,86.7 C182.398571,91.3022222 183.286429,94.6125926 184.981429,96.7925926 C186.676429,98.8918519 189.582143,100.183704 193.698571,100.506667 C195.070714,100.668148 195.797143,101.233333 195.797143,102.202222 C195.797143,103.574815 194.909286,104.301481 193.133571,104.301481 C191.519286,104.301481 189.501429,104.220741 187.241429,103.897778 C181.591429,103.171111 177.717143,102.848148 175.537857,102.848148 C172.632143,102.848148 169.242143,103.09037 165.448571,103.655556 C163.672857,103.897778 162.381429,104.059259 161.735714,104.059259 C160.444286,104.059259 159.879286,103.574815 159.879286,102.444444 C159.879286,101.717778 160.282857,101.233333 161.170714,100.91037 C163.753571,99.9414815 165.367857,98.8918519 166.013571,97.7614815 C166.74,96.6311111 167.062857,94.6125926 167.062857,91.5444444 L167.143571,89.0414815 L167.143571,62.6392593 L167.062857,59.7325926 C167.062857,56.0992593 166.74,53.677037 166.013571,52.3044444 C165.287143,50.9318519 163.915,50.2051852 161.977857,50.2051852 L158.507143,50.2051852 C158.022857,50.2051852 157.619286,50.0437037 157.377143,49.7207407 C157.135,49.4785185 156.973571,49.0748148 156.973571,48.5903704 C156.973571,47.6214815 157.377143,46.9755556 158.103571,46.5718519 C158.83,46.1681481 161.09,45.5222222 164.722143,44.6340741 C171.017857,43.1807407 176.183571,41.0007407 180.461429,38.0940741 C180.784286,37.7711111 181.107143,37.6096296 181.43,37.6096296 C181.995,37.5288889 182.317857,38.0133333 182.317857,39.062963 L182.075714,42.777037 L181.995,47.0562963 L182.479286,49.8822222 C182.640714,50.4474074 182.963571,50.7703704 183.447857,50.8511111 C183.851429,50.9318519 184.658571,50.2051852 185.869286,48.8325926 C190.47,43.2614815 196.523571,40.4355556 204.03,40.4355556 C212.182143,40.4355556 217.993571,42.8577778 221.464286,47.782963 C224.935,52.9503704 226.710714,61.0244444 226.710714,72.3281481" id="Path" fill="#E1251B"></path>
                <path d="M275.704286,40.597037 C285.147857,40.597037 292.977143,43.5844444 299.111429,49.5592593 C305.245714,55.5340741 308.312857,63.1237037 308.312857,72.4088889 C308.312857,81.9362963 305.003571,89.9296296 298.304286,96.3081481 C291.605,102.767407 283.372143,105.916296 273.363571,105.916296 C264.000714,105.916296 256.252143,102.928889 250.037143,97.0348148 C243.822143,91.06 240.674286,83.6318519 240.674286,74.6696296 C240.674286,65.222963 244.064286,57.2296296 250.925,50.5281481 C257.705,43.9881481 266.018571,40.597037 275.704286,40.597037 M271.83,44.7955556 C266.987143,44.7955556 263.193571,46.8140741 260.368571,50.9318519 C257.543571,55.0496296 256.090714,60.54 256.090714,67.402963 C256.090714,76.8496296 258.27,85.0044444 262.628571,91.7866667 C266.987143,98.5688889 272.314286,101.96 278.448571,101.96 C283.13,101.96 286.923571,100.022222 289.91,96.1466667 C292.896429,92.2711111 294.349286,87.3459259 294.349286,81.2096296 C294.349286,71.0362963 292.17,62.4777778 287.811429,55.3725926 C283.372143,48.2674074 278.045,44.7955556 271.83,44.7955556" id="Shape" fill="#E1251B"></path>
                <path d="M338.661429,66.2725926 L338.661429,87.3459259 C338.661429,95.2585185 342.374286,99.6992593 349.719286,100.668148 C351.252857,100.82963 352.06,101.475556 352.06,102.525185 C352.06,103.817037 351.495,104.462963 350.365,104.462963 C349.8,104.462963 349.154286,104.382222 348.266429,104.220741 C343.262143,103.494074 338.096429,103.09037 332.769286,103.09037 C329.944286,103.09037 327.442143,103.171111 325.182143,103.413333 L320.500714,103.897778 C319.693571,103.978519 318.805714,104.059259 317.837143,104.059259 C316.465,104.059259 315.738571,103.413333 315.738571,102.040741 C315.738571,101.152593 316.384286,100.506667 317.595,100.183704 C321.55,99.2148148 323.487143,95.5007407 323.487143,89.0414815 L323.406429,85.8925926 L323.406429,59.1674074 C323.406429,55.6148148 322.922143,53.1925926 322.034286,52.0622222 C321.065714,50.8511111 319.128571,50.2051852 316.061429,49.962963 C314.931429,49.8822222 314.285714,49.317037 314.285714,48.3481481 C314.285714,47.2177778 314.931429,46.5718519 316.303571,46.3296296 C323.164286,45.28 329.056429,43.3422222 333.899286,40.5162963 L336.805,38.8207407 C337.208571,38.5785185 337.612143,38.417037 337.935,38.417037 C338.661429,38.417037 339.065,38.9822222 339.065,40.0318519 C339.065,40.3548148 339.065,41.0814815 338.984286,42.2118519 L338.742143,46.4103704 L338.419286,51.0933333 L338.5,51.9007407 C338.742143,52.6274074 339.065,52.9503704 339.63,53.0311111 C340.114286,53.1118519 341.244286,51.9007407 342.858571,49.3977778 C344.230714,47.5407407 346.248571,45.4414815 349.073571,43.2614815 C351.898571,41.0814815 353.755,40.0318519 354.804286,40.0318519 C356.499286,40.0318519 359.082143,41.3237037 362.472143,43.9074074 C365.862143,46.4911111 367.557143,48.4288889 367.637857,49.7207407 C367.637857,50.2051852 366.830714,51.9007407 365.216429,54.9688889 C363.117857,58.8444444 361.342143,60.7014815 359.808571,60.7014815 C359.162857,60.7014815 358.597857,60.4592593 358.032857,59.9748148 L355.934286,58.1177778 C353.432143,55.7762963 350.526429,54.5651852 347.217143,54.5651852 C341.647857,54.5651852 338.661429,58.4407407 338.661429,66.2725926" id="Path" fill="#E1251B"></path>
            </g>
            <g id="Calque_2" transform="translate(148.500000, 2.500000)" fill="#9E7C24">
                <path d="M6.38970588,7.39375 C2.42647059,12.1875 0.404411765,15.275 0.404411765,16.65625 C0.404411765,17.55 0.970588235,18.6875 2.10294118,20.15 L6.55147059,25.26875 L11.3235294,31.0375 C12.2132353,31.85 13.1029412,32.25625 14.0735294,32.25625 C15.5294118,32.25625 18.0367647,29.98125 21.8382353,25.43125 C25.6397059,20.88125 27.4191176,17.79375 27.4191176,16.16875 C27.3382353,15.1125 26.7720588,13.89375 25.8014706,12.59375 L21.5955882,7.15 C17.9558824,2.51875 15.4485294,0.24375 13.9926471,0.24375 C12.9411765,0.1625 10.3529412,2.6 6.38970588,7.39375" id="Path"></path>
            </g>
        </g>
    </g>
</svg>