<?xml version="1.0" encoding="UTF-8"?>
<svg width="525px" height="268px" viewBox="0 0 525 268" version="1.1" xmlns="http://www.w3.org/2000/svg" xmlns:xlink="http://www.w3.org/1999/xlink">
    <!-- Generator: Sketch 60.1 (88133) - https://sketch.com -->
    <title>Dinor-Logo</title>
    <desc>Created with Sketch.</desc>
    <g id="Page-1" stroke="none" stroke-width="1" fill="none" fill-rule="evenodd">
        <g id="Dinor-Logo" fill-rule="nonzero">
            <g id="SVGID_1_-link" transform="translate(130.000000, 176.000000)" fill="#9E7C24">
                <path d="M164.3,3 C164.3,3 157.1,3.9 0.5,36.1 C0.5,36.1 37,38.6 118.2,32.2 C231.1,27.6 258.3,69.1 274.8,87.5 C275.8,89.7 352.7,64.6 339.2,50.5 C339.2,50.5 300.9,0.2 205,0.2 C192.5,0.1 178.9,1 164.3,3" id="SVGID_1_"></path>
            </g>
            <g id="SVGID_3_-link" transform="translate(0.000000, 67.000000)" fill="#9E7C24">
                <path d="M25.1,126.1 C69.4,156.8 124.1,143.9 149.4,135.8 L268.2,107.7 C268.2,107.7 285.8,101.7 338.8,95.8 C427.8,85.8 501.1,139 501.1,139 C465.5,85.1 385.6,78.2 385.6,78.2 C276.9,65.8 193.1,126.7 104.7,133.2 C18.6,139.6 13.2,77.8 13.2,77.8 C4.4,34.8 50.8,0.6 50.8,0.6 C-28.2,41.3 4,111.6 25.1,126.1" id="SVGID_3_"></path>
            </g>
            <g id="SVGID_5_-link" transform="translate(57.000000, 212.000000)" fill="#9E7C24">
                <path d="M159.7,18.4 C300.2,0.7 333.3,55.2 333.3,55.2 C333.3,55.2 308.8,-8.7 151.3,5.3 C22.1,16.8 3.7,4.3 1.2,1.3 C4.3,5.9 30.1,34.7 159.7,18.4 M0.7,0.7 C0.7,0.7 0.8,0.9 1.1,1.3 C0.9,1 0.7,0.7 0.7,0.7 Z" id="SVGID_5_"></path>
            </g>
            <g id="Group" transform="translate(35.000000, 0.000000)">
                <path d="M22.4,29.9 C22.4,24 20.8,19.4 17.5,16.2 C14.2,13 9.6,11.4 3.6,11.4 C1.7,11.4 0.7,10.6 0.7,8.9 C0.7,7.8 1.1,7 1.9,6.7 C2.7,6.3 4.5,6.2 7.2,6.2 L21.3,6.4 C24.5,6.4 27.4,6.3 29.9,6.2 C33.8,6 39.2,5.5 46,4.9 C55.2,4 62.4,3.6 67.8,3.6 C88.8,3.6 105.6,9 118.3,19.7 C131,30.4 137.3,44.7 137.3,62.6 C137.3,85.6 128.8,103.9 111.8,117.5 C99.3,127.5 85.2,132.5 69.6,132.5 C67,132.5 61.8,132.3 53.9,131.8 C49.4,131.6 44.9,131.4 40.1,131.4 C29.1,131.4 21.8,131.7 18.1,132.3 C15.2,132.8 13.3,133 12.3,133 C10.9,133 10.2,132.1 10.2,130.3 C10.2,129 11,128.2 12.5,127.9 C16.3,127.2 19,125.6 20.3,123.2 C21.7,120.8 22.4,116.6 22.4,110.8 L22.4,29.9 L22.4,29.9 Z M43.8,24.9 L43.8,106.4 L44.9,114.8 C46.9,122 54.6,125.6 67.8,125.6 C82.1,125.6 93.5,120.6 101.9,110.7 C110.3,100.8 114.5,87.4 114.5,70.5 C114.5,52.8 109.4,38.4 99.3,27.3 C89.2,16.2 76.1,10.6 60.1,10.6 C53.5,10.6 49.1,11.5 46.7,13.2 C44.8,14.5 43.8,18.4 43.8,24.9" id="Shape" fill="#000000"></path>
                <path d="M175.7,57.8 L175.7,110.3 C175.7,116.6 176.6,121 178.5,123.4 C180.4,125.9 183.9,127.3 189,127.6 C191,127.7 192.1,128.4 192.1,129.8 C192.1,131.4 189.7,132.3 184.8,132.3 C184.2,132.3 182.8,132.2 180.8,132 L173.8,131.3 C169.9,131 167.4,130.8 166.2,130.8 C162.9,130.8 158.5,131.2 152.9,132.1 C151.5,132.3 150.5,132.5 149.7,132.5 C148.4,132.5 147.7,131.9 147.7,130.7 C147.7,129.9 148.1,129.2 148.9,128.8 L152.1,127.2 C153.5,126.5 154.6,124.9 155.6,122.4 C156.6,119.9 157,117.2 157,114.4 L156.9,110.5 L156.9,79.1 C156.9,74.3 156.4,71 155.4,69.1 C154.4,67.3 152.5,66.3 149.9,66.3 L147.8,66.3 C146.6,66.3 145.8,66 145.4,65.5 C145.2,65.2 145.1,64.8 145.1,64.2 C145.1,62.6 147,61.4 150.8,60.6 C160.2,58.6 167.7,55.6 173.1,51.6 C173.8,51.2 174.3,50.9 174.7,50.9 C175.6,51 176,51.6 176,52.7 L175.9,53.5 C175.8,54.2 175.7,55.6 175.7,57.8" id="Path" fill="#000000"></path>
                <path d="M278.6,93.1 L278.6,111.9 C278.6,115.9 278.8,118.7 279.3,120.1 C279.7,121.6 280.7,122.9 282.3,124.2 C284.5,126 287.4,127.1 290.8,127.4 C292.7,127.6 293.7,128.4 293.7,129.6 C293.7,131.5 291.5,132.4 287.1,132.4 C286.2,132.4 284.8,132.3 283.1,132.1 L277,131.4 C274.3,131.1 272.1,131 270.6,131 C264.7,131 260,131.4 256.5,132.1 C255.1,132.4 253.8,132.5 252.8,132.5 C251.4,132.5 250.8,131.8 250.8,130.5 C250.8,129.5 251.5,128.7 252.9,128.2 C255.6,127.3 257.4,125.8 258.4,123.8 C259.3,121.8 259.8,118.5 259.8,113.8 L259.8,91.9 C259.8,83.5 258.1,76.8 254.8,71.9 C251.4,67 246.9,64.5 241.1,64.5 C235.9,64.5 231.8,65.9 228.6,68.8 C225.4,71.6 223.8,75.3 223.8,79.9 L223.8,110.9 C223.8,116.6 224.9,120.7 227,123.4 C229.1,126 232.7,127.6 237.8,128 C239.5,128.2 240.4,128.9 240.4,130.1 C240.4,131.8 239.3,132.7 237.2,132.7 C235.1,132.7 232.7,132.5 229.8,132.2 C222.8,131.3 218,130.9 215.3,130.9 C211.7,130.9 207.5,131.2 202.8,131.9 C200.6,132.2 199,132.4 198.2,132.4 C196.6,132.4 195.9,131.8 195.9,130.5 C195.9,129.6 196.4,129 197.5,128.5 C200.7,127.3 202.7,126 203.5,124.6 C204.4,123.2 204.8,120.7 204.8,116.9 L204.9,113.8 L204.9,81.1 L204.8,77.5 C204.8,73.1 204.3,70 203.5,68.3 C202.6,66.6 200.9,65.7 198.5,65.7 L194.2,65.7 C193.6,65.7 193.1,65.5 192.8,65.1 C192.5,64.8 192.3,64.3 192.3,63.7 C192.3,62.5 192.8,61.7 193.7,61.2 C194.6,60.7 197.4,59.9 201.9,58.8 C209.7,57 216.2,54.3 221.4,50.7 C221.8,50.3 222.2,50.1 222.6,50.1 C223.3,50 223.7,50.6 223.7,51.9 L223.4,56.5 L223.3,61.8 L223.9,65.3 C224.1,66 224.5,66.5 225.1,66.5 C225.6,66.6 226.6,65.7 228.1,64 C233.8,57.1 241.3,53.6 250.6,53.6 C260.7,53.6 267.9,56.6 272.2,62.7 C276.4,69 278.6,79.1 278.6,93.1" id="Path" fill="#000000"></path>
                <path d="M339.3,53.8 C351,53.8 360.7,57.5 368.3,64.9 C375.9,72.3 379.7,81.8 379.7,93.2 C379.7,105 375.6,114.9 367.3,122.8 C359,130.7 348.7,134.7 336.4,134.7 C324.8,134.7 315.2,131 307.5,123.7 C299.8,116.3 296,107.1 296,96 C296,84.3 300.2,74.4 308.7,66.1 C317.1,57.9 327.3,53.8 339.3,53.8 M334.5,58.9 C328.5,58.9 323.8,61.4 320.3,66.5 C316.8,71.6 315,78.4 315,86.9 C315,98.6 317.7,108.7 323.1,117.1 C328.5,125.5 335.1,129.7 342.7,129.7 C348.5,129.7 353.2,127.3 356.9,122.5 C360.6,117.7 362.4,111.6 362.4,104.1 C362.4,91.5 359.7,80.8 354.3,72.1 C348.9,63.3 342.3,58.9 334.5,58.9" id="Shape" fill="#000000"></path>
                <path d="M417.4,85.6 L417.4,111.6 C417.4,121.4 422,126.9 431.1,128.1 C433,128.3 434,129.1 434,130.4 C434,132 433.3,132.8 431.9,132.8 C431.2,132.8 430.3,132.7 429.3,132.5 C423.1,131.6 416.7,131.1 410.1,131.1 C406.6,131.1 403.5,131.2 400.7,131.5 L394.9,132.1 C393.8,132.2 392.8,132.3 391.6,132.3 C389.9,132.3 389,131.5 389,129.8 C389,128.7 389.8,127.9 391.3,127.5 C396.2,126.3 398.6,121.7 398.6,113.7 L398.5,109.8 L398.5,76.7 C398.5,72.3 397.9,69.3 396.8,67.9 C395.6,66.4 393.2,65.6 389.4,65.3 C388,65.2 387.3,64.5 387.3,63.3 C387.3,61.9 388.1,61.1 389.8,60.8 C398.3,59.5 405.6,57.1 411.6,53.7 L415.2,51.6 C415.7,51.3 416.2,51.1 416.6,51.1 C417.5,51.1 418,51.8 418,53.1 C418,53.5 417.9,54.4 417.9,55.8 L417.6,61 L417.2,66.8 L417.3,67.8 C417.5,68.7 418,69.1 418.7,69.2 C419.3,69.3 420.7,67.8 422.7,64.7 C424.4,62.3 426.9,59.8 430.4,57.1 C433.9,54.4 436.2,53.1 437.5,53.1 C439.6,53.1 442.8,54.7 447,57.9 C451.2,61.1 453.3,63.5 453.4,65.1 C453.4,65.7 452.4,67.8 450.4,71.6 C447.8,76.4 445.6,78.7 443.6,78.7 C442.8,78.7 442.1,78.4 441.4,77.8 L438.8,75.5 C435.7,72.6 432.1,71.1 428,71.1 C421,71.1 417.4,75.9 417.4,85.6" id="Path" fill="#000000"></path>
                <path d="M163.4,7.1 C165.1,7.1 168.3,9.9 172.8,15.6 L178,22.4 C179.2,24 179.9,25.4 180,26.8 C180.1,28.8 177.8,32.6 173.1,38.2 C168.4,43.8 165.2,46.6 163.5,46.6 C162.3,46.6 161.2,46.1 160.1,45.1 L154.2,38 L148.7,31.7 C147.3,30 146.6,28.5 146.6,27.4 C146.6,25.7 149,21.9 154,16 C159,10.1 162.1,7.1 163.4,7.1" id="Path" fill="#000000"></path>
                <path d="M457.8,107.9 C458.7,105.9 459.9,104.1 461.4,102.6 C462.9,101.1 464.8,99.9 466.8,99.2 C468.8,98.3 471,97.9 473.3,97.9 C475.6,97.9 477.8,98.3 479.8,99.2 C481.8,100 483.5,101.2 485.1,102.6 C486.6,104.1 487.7,105.9 488.7,107.9 C489.6,109.9 490,112.1 490,114.5 C490,116.9 489.6,119.1 488.7,121.2 C487.7,123.2 486.6,125 485.1,126.5 C483.5,128 481.8,129.2 479.8,130 C477.8,130.8 475.6,131.2 473.3,131.2 C471,131.2 468.9,130.8 466.8,130 C464.8,129.2 462.9,128 461.4,126.5 C459.9,125 458.7,123.2 457.8,121.2 C456.9,119.1 456.5,117 456.5,114.5 C456.5,112.1 456.9,109.9 457.8,107.9 M460.5,120.1 C461.2,121.8 462.2,123.3 463.4,124.6 C464.6,125.9 466.1,126.9 467.8,127.7 C469.5,128.4 471.3,128.8 473.3,128.8 C475.2,128.8 477,128.4 478.7,127.7 C480.3,127 481.8,125.9 483.1,124.6 C484.3,123.3 485.3,121.8 486,120.1 C486.7,118.3 487,116.4 487,114.4 C487,112.4 486.6,110.5 486,108.8 C485.3,107.1 484.4,105.6 483.1,104.3 C481.8,103 480.3,102 478.7,101.3 C477,100.5 475.2,100.2 473.3,100.2 C471.4,100.2 469.5,100.6 467.8,101.3 C466.2,102 464.7,103 463.4,104.3 C462.2,105.6 461.2,107.1 460.5,108.8 C459.8,110.5 459.5,112.4 459.5,114.4 C459.4,116.5 459.8,118.4 460.5,120.1 M474.3,104.7 C476.6,104.7 478.3,105.2 479.5,106.1 C480.6,107 481.2,108.5 481.2,110.3 C481.2,112 480.8,113.3 479.7,114.1 C478.7,114.9 477.5,115.4 476,115.5 L481.6,124.1 L478.4,124.1 L473.1,115.7 L469.8,115.7 L469.8,124.1 L466.8,124.1 L466.8,104.6 L474.3,104.6 L474.3,104.7 Z M473,113.4 C473.7,113.4 474.3,113.4 474.9,113.3 C475.5,113.3 476.1,113.2 476.5,113 C476.9,112.8 477.4,112.5 477.7,112 C478,111.5 478.1,111 478.1,110.2 C478.1,109.5 478,109 477.7,108.6 C477.5,108.3 477.1,108 476.7,107.7 C476.3,107.5 475.9,107.3 475.3,107.3 C474.8,107.2 474.2,107.2 473.8,107.2 L469.7,107.2 L469.7,113.4 L473,113.4 L473,113.4 Z" id="Shape" fill="#000000"></path>
                <path d="M25.3,27.1 C25.3,21.2 23.7,16.6 20.4,13.4 C17.1,10.2 12.5,8.6 6.5,8.6 C4.6,8.6 3.6,7.8 3.6,6.1 C3.6,5 4,4.2 4.8,3.9 C5.6,3.6 7.4,3.4 10.1,3.4 L24.2,3.6 C27.4,3.6 30.3,3.5 32.8,3.4 C36.7,3.2 42.1,2.7 48.9,2.1 C58.1,1.2 65.3,0.8 70.7,0.8 C91.7,0.8 108.5,6.2 121.2,16.9 C133.9,27.6 140.2,42 140.2,59.8 C140.2,82.8 131.7,101.1 114.7,114.7 C102.2,124.7 88.1,129.7 72.5,129.7 C69.9,129.7 64.7,129.4 56.8,129 C52.3,128.8 47.8,128.6 43.1,128.6 C32.1,128.6 24.7,128.9 21.1,129.5 C18.3,130 16.3,130.2 15.3,130.2 C13.9,130.2 13.2,129.3 13.2,127.5 C13.2,126.2 14,125.4 15.5,125.1 C19.3,124.4 22,122.8 23.3,120.4 C24.7,118 25.4,113.9 25.4,108 L25.4,27.1 L25.3,27.1 Z M46.7,22.1 L46.7,103.6 L47.8,112 C49.8,119.2 57.5,122.8 70.7,122.8 C85,122.8 96.4,117.8 104.8,107.9 C113.2,98 117.4,84.6 117.4,67.7 C117.4,50 112.4,35.6 102.2,24.5 C92.1,13.4 79,7.8 63,7.8 C56.4,7.8 52,8.7 49.5,10.4 C47.7,11.6 46.7,15.6 46.7,22.1" id="Shape" fill="#E1251B"></path>
                <path d="M178.6,54.9 L178.6,107.4 C178.6,113.7 179.5,118.1 181.4,120.6 C183.3,123.1 186.8,124.5 191.9,124.8 C193.9,124.9 195,125.7 195,127 C195,128.6 192.6,129.5 187.7,129.5 C187.1,129.5 185.7,129.4 183.7,129.2 L176.7,128.5 C172.9,128.2 170.3,128 169.1,128 C165.8,128 161.4,128.4 155.8,129.3 C154.4,129.6 153.4,129.7 152.6,129.7 C151.3,129.7 150.6,129.1 150.6,127.9 C150.6,127.1 151,126.4 151.8,126 L155,124.4 C156.4,123.7 157.5,122.1 158.5,119.6 C159.5,117.1 159.9,114.4 159.9,111.6 L159.8,107.7 L159.8,76.3 C159.8,71.5 159.3,68.2 158.3,66.3 C157.3,64.5 155.4,63.5 152.8,63.5 L150.7,63.5 C149.5,63.5 148.7,63.2 148.3,62.7 C148.1,62.4 148,62 148,61.4 C148,59.8 149.9,58.6 153.7,57.8 C163.1,55.8 170.6,52.8 176,48.8 C176.7,48.4 177.2,48.2 177.6,48.2 C178.5,48.3 178.9,48.8 178.9,50 L178.8,50.8 C178.6,51.3 178.6,52.7 178.6,54.9" id="Path" fill="#E1251B"></path>
                <path d="M281.5,90.2 L281.5,109 C281.5,113 281.7,115.7 282.2,117.2 C282.6,118.7 283.6,120 285.2,121.3 C287.4,123.1 290.3,124.2 293.7,124.5 C295.6,124.8 296.6,125.5 296.6,126.7 C296.6,128.6 294.4,129.5 290,129.5 C289.1,129.5 287.7,129.4 286,129.2 L279.9,128.5 C277.2,128.2 275,128.1 273.5,128.1 C267.6,128.1 262.9,128.5 259.4,129.2 C258,129.5 256.7,129.6 255.7,129.6 C254.3,129.6 253.6,128.9 253.6,127.6 C253.6,126.6 254.3,125.8 255.7,125.3 C258.4,124.4 260.2,122.9 261.2,120.9 C262.1,118.9 262.6,115.6 262.6,110.9 L262.6,89 C262.6,80.6 260.9,73.9 257.6,69 C254.2,64.1 249.7,61.6 243.9,61.6 C238.7,61.6 234.5,63 231.4,65.9 C228.2,68.7 226.6,72.5 226.6,77 L226.6,108 C226.6,113.7 227.7,117.8 229.8,120.5 C231.9,123.1 235.5,124.7 240.6,125.1 C242.3,125.3 243.2,126 243.2,127.2 C243.2,128.9 242.1,129.8 239.9,129.8 C237.9,129.8 235.4,129.7 232.6,129.3 C225.6,128.4 220.8,128 218.1,128 C214.5,128 210.3,128.3 205.6,129 C203.4,129.3 201.8,129.5 201,129.5 C199.4,129.5 198.7,128.9 198.7,127.5 C198.7,126.6 199.2,126 200.3,125.6 C203.5,124.4 205.5,123.1 206.3,121.7 C207.2,120.3 207.6,117.8 207.6,114 L207.7,110.9 L207.7,78.2 L207.6,74.6 C207.6,70.1 207.2,67.1 206.3,65.4 C205.4,63.7 203.7,62.8 201.3,62.8 L197,62.8 C196.4,62.8 195.9,62.6 195.6,62.2 C195.3,61.9 195.1,61.4 195.1,60.8 C195.1,59.6 195.6,58.8 196.5,58.3 C197.4,57.8 200.2,57 204.7,55.9 C212.5,54.1 218.9,51.4 224.2,47.8 C224.6,47.4 225,47.2 225.4,47.2 C226.1,47.1 226.5,47.7 226.5,49 L226.2,53.6 L226.1,58.9 L226.7,62.4 C226.9,63.1 227.3,63.5 227.9,63.6 C228.4,63.7 229.4,62.8 230.9,61.1 C236.6,54.2 244.1,50.7 253.4,50.7 C263.5,50.7 270.7,53.7 275,59.8 C279.3,66.2 281.5,76.2 281.5,90.2" id="Path" fill="#E1251B"></path>
                <path d="M342.2,50.9 C353.9,50.9 363.6,54.6 371.2,62 C378.8,69.4 382.6,78.8 382.6,90.3 C382.6,102.1 378.5,112 370.2,119.9 C361.9,127.9 351.7,131.8 339.3,131.8 C327.7,131.8 318.1,128.1 310.4,120.8 C302.7,113.4 298.8,104.2 298.8,93.1 C298.8,81.4 303,71.5 311.5,63.2 C319.9,55.1 330.2,50.9 342.2,50.9 M337.4,56.1 C331.4,56.1 326.7,58.6 323.2,63.7 C319.7,68.8 317.9,75.6 317.9,84.1 C317.9,95.8 320.6,105.9 326,114.3 C331.4,122.7 338,126.9 345.6,126.9 C351.4,126.9 356.1,124.5 359.8,119.7 C363.5,114.9 365.3,108.8 365.3,101.2 C365.3,88.6 362.6,78 357.2,69.2 C351.7,60.4 345.1,56.1 337.4,56.1" id="Shape" fill="#E1251B"></path>
                <path d="M420.2,82.7 L420.2,108.8 C420.2,118.6 424.8,124.1 433.9,125.3 C435.8,125.5 436.8,126.3 436.8,127.6 C436.8,129.2 436.1,130 434.7,130 C434,130 433.2,129.9 432.1,129.7 C425.9,128.8 419.5,128.3 412.9,128.3 C409.4,128.3 406.3,128.4 403.5,128.7 L397.7,129.3 C396.7,129.4 395.6,129.5 394.4,129.5 C392.7,129.5 391.8,128.7 391.8,127 C391.8,125.9 392.6,125.1 394.1,124.7 C399,123.5 401.4,118.9 401.4,110.9 L401.3,107 L401.3,73.9 C401.3,69.5 400.7,66.5 399.6,65.1 C398.4,63.6 396,62.8 392.2,62.5 C390.8,62.4 390,61.7 390,60.5 C390,59.1 390.8,58.3 392.5,58 C401,56.7 408.3,54.3 414.3,50.8 L417.9,48.7 C418.4,48.4 418.9,48.2 419.3,48.2 C420.2,48.2 420.7,48.9 420.7,50.2 C420.7,50.6 420.7,51.5 420.6,52.9 L420.3,58.1 L419.9,63.9 L420,64.9 C420.3,65.8 420.7,66.2 421.4,66.3 C422,66.4 423.4,64.9 425.4,61.8 C427.1,59.5 429.6,56.9 433.1,54.2 C436.6,51.5 438.9,50.2 440.2,50.2 C442.3,50.2 445.5,51.8 449.7,55 C453.9,58.2 456,60.6 456.1,62.2 C456.1,62.8 455.1,64.9 453.1,68.7 C450.5,73.5 448.3,75.8 446.4,75.8 C445.6,75.8 444.9,75.5 444.2,74.9 L441.6,72.6 C438.5,69.7 434.9,68.2 430.8,68.2 C423.9,68.2 420.2,73 420.2,82.7" id="Path" fill="#E1251B"></path>
            </g>
            <g id="Calque_2" transform="translate(184.000000, 4.000000)" fill="#9E7C24">
                <path d="M7.9,9.1 C3,15 0.5,18.8 0.5,20.5 C0.5,21.6 1.2,23 2.6,24.8 L8.1,31.1 L14,38.2 C15.1,39.2 16.2,39.7 17.4,39.7 C19.2,39.7 22.3,36.9 27,31.3 C31.7,25.7 33.9,21.9 33.9,19.9 C33.8,18.6 33.1,17.1 31.9,15.5 L26.7,8.8 C22.2,3.1 19.1,0.3 17.3,0.3 C16,0.2 12.8,3.2 7.9,9.1" id="Path"></path>
            </g>
        </g>
    </g>
</svg>