<?xml version="1.0" encoding="UTF-8" standalone="no"?>
<!-- Generator: Adobe Illustrator 24.1.0, SVG Export Plug-In . SVG Version: 6.00 Build 0)  -->

<svg
   version="1.1"
   x="0px"
   y="0px"
   viewBox="0 0 524.6266 266.60001"
   xml:space="preserve"
   id="svg12"
   sodipodi:docname="LOGO_DINOR_monochrome.svg"
   width="524.62659"
   height="266.60001"
   inkscape:version="1.4.2 (ebf0e940d0, 2025-05-08)"
   xmlns:inkscape="http://www.inkscape.org/namespaces/inkscape"
   xmlns:sodipodi="http://sodipodi.sourceforge.net/DTD/sodipodi-0.dtd"
   xmlns="http://www.w3.org/2000/svg"
   xmlns:svg="http://www.w3.org/2000/svg"><defs
   id="defs12" /><sodipodi:namedview
   id="namedview12"
   pagecolor="#505050"
   bordercolor="#ffffff"
   borderopacity="1"
   inkscape:showpageshadow="0"
   inkscape:pageopacity="0"
   inkscape:pagecheckerboard="1"
   inkscape:deskcolor="#505050"
   inkscape:zoom="0.95673771"
   inkscape:cx="259.2142"
   inkscape:cy="124.38101"
   inkscape:window-width="1920"
   inkscape:window-height="935"
   inkscape:window-x="0"
   inkscape:window-y="0"
   inkscape:window-maximized="1"
   inkscape:current-layer="svg12" />
<style
   type="text/css"
   id="style1">
	.st0{display:none;}
	.st1{display:inline;fill:#FCE200;}
</style>
<g
   id="Calque_2"
   class="st0"
   transform="translate(-298.97344,-258.4)">
	<rect
   x="-1221.9"
   y="-1131.9"
   class="st1"
   width="1190.6"
   height="841.90002"
   id="rect1" />
</g>
<g
   id="Calque_3"
   transform="translate(-298.97344,-258.4)">
</g>
<g
   id="Calque_1"
   transform="translate(-298.97344,-258.4)">
	<g
   id="g12">
		<path
   d="m 791.4,365.9 c 0.9,-2 2.1,-3.8 3.6,-5.3 1.5,-1.5 3.4,-2.7 5.4,-3.4 2,-0.9 4.2,-1.3 6.5,-1.3 2.3,0 4.5,0.4 6.5,1.3 2,0.8 3.7,2 5.3,3.4 1.5,1.5 2.6,3.3 3.6,5.3 0.9,2 1.3,4.2 1.3,6.6 0,2.4 -0.4,4.6 -1.3,6.7 -1,2 -2.1,3.8 -3.6,5.3 -1.6,1.5 -3.3,2.7 -5.3,3.5 -2,0.8 -4.2,1.2 -6.5,1.2 -2.3,0 -4.4,-0.4 -6.5,-1.2 -2,-0.8 -3.9,-2 -5.4,-3.5 -1.5,-1.5 -2.7,-3.3 -3.6,-5.3 -0.9,-2.1 -1.3,-4.2 -1.3,-6.7 0,-2.4 0.4,-4.6 1.3,-6.6 m 2.7,12.3 c 0.7,1.7 1.7,3.2 2.9,4.5 1.2,1.3 2.7,2.3 4.4,3.1 1.7,0.7 3.5,1.1 5.5,1.1 1.9,0 3.7,-0.4 5.4,-1.1 1.6,-0.7 3.1,-1.8 4.4,-3.1 1.2,-1.3 2.2,-2.8 2.9,-4.5 0.7,-1.8 1,-3.7 1,-5.7 0,-2 -0.4,-3.9 -1,-5.6 -0.7,-1.7 -1.6,-3.2 -2.9,-4.5 -1.3,-1.3 -2.8,-2.3 -4.4,-3 -1.7,-0.8 -3.5,-1.1 -5.4,-1.1 -1.9,0 -3.8,0.4 -5.5,1.1 -1.6,0.7 -3.1,1.7 -4.4,3 -1.2,1.3 -2.2,2.8 -2.9,4.5 -0.7,1.7 -1,3.6 -1,5.6 0,2 0.3,3.9 1,5.7 m 13.8,-15.4 c 2.3,0 4,0.5 5.2,1.4 1.1,0.9 1.7,2.4 1.7,4.2 0,1.7 -0.4,3 -1.5,3.8 -1,0.8 -2.2,1.3 -3.7,1.4 l 5.6,8.6 H 812 l -5.3,-8.4 h -3.3 v 8.4 h -3 v -19.5 h 7.5 z m -1.3,8.6 c 0.7,0 1.3,0 1.9,-0.1 0.6,0 1.2,-0.1 1.6,-0.3 0.4,-0.2 0.9,-0.5 1.2,-1 0.3,-0.5 0.4,-1 0.4,-1.8 0,-0.7 -0.1,-1.2 -0.4,-1.6 -0.2,-0.3 -0.6,-0.6 -1,-0.9 -0.4,-0.2 -0.8,-0.4 -1.4,-0.4 -0.5,-0.1 -1.1,-0.1 -1.5,-0.1 h -4.1 v 6.2 z"
   id="path1" />
		<g
   id="g11">
			<path
   d="m 593,436.7 c 0,0 -7.2,0.9 -163.9,33.1 0,0 36.6,2.5 117.8,-3.9 112.9,-4.6 140.2,36.9 156.7,55.3 1,2.2 77.9,-22.9 64.4,-37 0,0 -38.3,-50.3 -134.2,-50.3 -12.6,-0.1 -26.2,0.8 -40.8,2.8"
   id="path2" />
			<path
   d="m 323.7,450.9 c 44.3,30.7 99,17.8 124.4,9.7 l 118.8,-28.1 c 0,0 17.6,-6 70.6,-11.9 89.1,-10 162.4,43.2 162.4,43.2 C 764.3,409.9 684.4,403 684.4,403 c -108.7,-12.4 -192.5,48.5 -281,55.1 -86.2,6.4 -91.6,-55.5 -91.6,-55.5 -8.8,-43 37.6,-77.2 37.6,-77.2 -79,40.6 -46.8,110.9 -25.7,125.5"
   id="path3" />
			<path
   d="M 515.4,488.1 C 656,470.5 689,525 689,525 c 0,0 -24.5,-64 -182.1,-49.9 -129.2,11.5 -147.7,-1 -150.2,-4 3.3,4.5 29,33.3 158.7,17"
   id="path4" />
			<path
   d="m 359,284.7 c 0,-5.9 -1.6,-10.5 -4.9,-13.7 -3.3,-3.2 -7.9,-4.8 -13.9,-4.8 -1.9,0 -2.9,-0.8 -2.9,-2.5 0,-1.1 0.4,-1.9 1.2,-2.2 0.8,-0.3 2.6,-0.5 5.3,-0.5 l 14.1,0.2 c 3.2,0 6.1,-0.1 8.6,-0.2 3.9,-0.2 9.3,-0.7 16.1,-1.3 9.2,-0.9 16.4,-1.3 21.8,-1.3 21,0 37.8,5.4 50.5,16.1 12.7,10.8 19,25.1 19,42.9 0,23 -8.5,41.3 -25.5,54.9 -12.5,10 -26.6,15 -42.3,15 -2.6,0 -7.8,-0.3 -15.7,-0.7 -4.5,-0.2 -9,-0.4 -13.7,-0.4 -11,0 -18.4,0.3 -22,0.9 -2.8,0.5 -4.8,0.7 -5.8,0.7 -1.4,0 -2.1,-0.9 -2.1,-2.7 0,-1.3 0.8,-2.1 2.3,-2.4 3.8,-0.7 6.5,-2.3 7.9,-4.7 1.4,-2.4 2.1,-6.5 2.1,-12.4 v -80.9 z m 21.3,-5 v 81.5 l 1.1,8.5 c 2,7.2 9.7,10.8 22.9,10.8 14.3,0 25.7,-5 34.1,-14.9 8.4,-9.9 12.6,-23.3 12.6,-40.2 0,-17.7 -5,-32.1 -15.2,-43.2 -10.1,-11.1 -23.2,-16.7 -39.2,-16.7 -6.6,0 -11,0.9 -13.5,2.6 -1.8,1.2 -2.8,5.1 -2.8,11.6 m 132,32.9 c 0,-2.2 0,-3.6 0.1,-4.2 l 0.1,-0.8 c 0,-1.1 -0.4,-1.7 -1.3,-1.8 -0.4,0 -0.9,0.2 -1.6,0.6 -5.4,4 -12.8,7 -22.3,9 -3.8,0.8 -5.7,2 -5.7,3.6 0,0.6 0.1,1.1 0.3,1.3 0.4,0.5 1.2,0.8 2.4,0.8 h 2.1 c 2.7,0 4.5,0.9 5.5,2.8 1,1.9 1.5,5.2 1.5,10 v 31.4 l 0.1,3.9 c 0,2.8 -0.5,5.4 -1.4,8 -1,2.5 -2.1,4.1 -3.5,4.8 l -3.2,1.6 c -0.8,0.4 -1.2,1.1 -1.2,1.9 0,1.2 0.6,1.8 2,1.8 0.7,0 1.8,-0.1 3.2,-0.4 5.6,-0.9 10,-1.3 13.3,-1.3 1.2,0 3.8,0.2 7.6,0.5 l 7,0.7 c 2,0.2 3.4,0.3 4,0.3 4.9,0 7.3,-0.8 7.3,-2.5 0,-1.3 -1,-2.1 -3.1,-2.2 -5.1,-0.3 -8.7,-1.7 -10.5,-4.2 -1.9,-2.5 -2.8,-6.9 -2.8,-13.2 v -52.4 m 103,35.3 c 0,-14 -2.2,-24.1 -6.5,-30.2 -4.3,-6.1 -11.5,-9.1 -21.6,-9.1 -9.3,0 -16.8,3.5 -22.5,10.4 -1.5,1.7 -2.5,2.6 -3,2.5 -0.6,-0.1 -1,-0.5 -1.2,-1.2 l -0.6,-3.5 0.1,-5.3 0.3,-4.6 c 0,-1.2 -0.4,-1.8 -1.1,-1.8 -0.4,0 -0.8,0.2 -1.2,0.6 -5.2,3.6 -11.7,6.3 -19.5,8.1 -4.5,1.1 -7.3,1.9 -8.2,2.4 -0.9,0.5 -1.4,1.3 -1.4,2.5 0,0.6 0.2,1.1 0.5,1.4 0.3,0.4 0.8,0.6 1.4,0.6 h 4.3 c 2.4,0 4.1,0.8 5,2.6 0.9,1.7 1.3,4.8 1.3,9.2 l 0.1,3.6 v 32.7 l -0.1,3.1 c 0,3.7 -0.4,6.3 -1.3,7.7 -0.9,1.4 -2.9,2.7 -6,3.9 -1.1,0.4 -1.6,1.1 -1.6,1.9 0,1.3 0.8,2 2.3,2 0.8,0 2.3,-0.2 4.6,-0.5 4.7,-0.7 8.9,-1 12.5,-1 2.7,0 7.5,0.4 14.5,1.3 2.9,0.3 5.3,0.5 7.3,0.5 2.2,0 3.3,-0.9 3.3,-2.6 0,-1.2 -0.9,-1.9 -2.6,-2.1 -5.1,-0.4 -8.7,-2 -10.8,-4.6 -2.1,-2.6 -3.2,-6.8 -3.2,-12.5 v -31 c 0,-4.6 1.6,-8.3 4.8,-11.1 3.2,-2.8 7.4,-4.3 12.5,-4.3 5.8,0 10.4,2.5 13.7,7.4 3.4,4.9 5,11.6 5,20 v 21.9 c 0,4.7 -0.5,8 -1.4,10 -0.9,2 -2.8,3.4 -5.5,4.4 -1.4,0.6 -2.1,1.3 -2.1,2.3 0,1.4 0.7,2 2.1,2 1,0 2.3,-0.1 3.7,-0.4 3.6,-0.7 8.3,-1.1 14.2,-1.1 1.6,0 3.7,0.1 6.4,0.4 l 6.1,0.7 c 1.7,0.2 3.1,0.3 4,0.3 4.4,0 6.6,-0.9 6.6,-2.8 0,-1.2 -1,-2 -2.9,-2.2 -3.5,-0.4 -6.3,-1.4 -8.5,-3.2 -1.5,-1.3 -2.5,-2.7 -3,-4.1 -0.5,-1.4 -0.7,-4.2 -0.7,-8.2 v -19 m 60.6,-39.3 c 11.7,0 21.4,3.7 29,11.1 7.6,7.4 11.4,16.8 11.4,28.3 0,11.8 -4.1,21.7 -12.4,29.6 -8.3,8 -18.6,11.9 -30.9,11.9 -11.6,0 -21.2,-3.7 -28.9,-11 -7.7,-7.4 -11.6,-16.6 -11.6,-27.7 0,-11.7 4.2,-21.7 12.7,-29.9 8.5,-8.2 18.7,-12.3 30.7,-12.3 m -4.8,5.1 c -6,0 -10.7,2.5 -14.3,7.6 -3.5,5.1 -5.3,11.9 -5.3,20.4 0,11.7 2.7,21.8 8.1,30.2 5.4,8.4 12,12.6 19.6,12.6 5.8,0 10.5,-2.4 14.2,-7.2 3.7,-4.8 5.5,-10.9 5.5,-18.5 0,-12.6 -2.7,-23.2 -8.1,-32 -5.3,-8.7 -11.9,-13.1 -19.7,-13.1 m 82.9,26.7 c 0,-9.6 3.6,-14.5 10.9,-14.5 4.1,0 7.6,1.5 10.8,4.4 l 2.6,2.3 c 0.7,0.6 1.4,0.9 2.2,0.9 1.9,0 4.2,-2.4 6.7,-7.2 2,-3.8 3,-5.9 3,-6.5 -0.1,-1.6 -2.2,-4 -6.4,-7.2 -4.2,-3.2 -7.4,-4.8 -9.5,-4.8 -1.3,0 -3.7,1.4 -7.1,4 -3.5,2.7 -6,5.2 -7.7,7.6 -2.1,3 -3.4,4.5 -4,4.5 -0.7,-0.1 -1.1,-0.5 -1.4,-1.4 l -0.1,-1 0.4,-5.8 0.3,-5.2 c 0.1,-1.4 0.1,-2.3 0.1,-2.7 0,-1.4 -0.5,-2 -1.4,-2 -0.4,0 -0.9,0.1 -1.4,0.5 l -3.6,2.1 c -6,3.5 -13.3,5.8 -21.8,7.2 -1.7,0.2 -2.5,1.1 -2.5,2.5 0,1.2 0.7,1.9 2.2,2 3.8,0.3 6.2,1.2 7.4,2.6 1.1,1.5 1.7,4.4 1.7,8.8 v 33.1 l 0.1,3.9 c 0,8 -2.4,12.6 -7.3,13.8 -1.6,0.4 -2.3,1.1 -2.3,2.3 0,1.6 0.9,2.5 2.6,2.5 1.1,0 2.2,-0.1 3.3,-0.2 l 5.8,-0.6 c 2.8,-0.2 5.9,-0.4 9.4,-0.4 6.6,0 13,0.5 19.2,1.4 1.1,0.2 1.9,0.3 2.6,0.3 1.4,0 2.1,-0.8 2.1,-2.4 0,-1.3 -1,-2 -2.9,-2.3 -9.2,-1.2 -13.7,-6.7 -13.7,-16.5 v -26 M 490.6,270.8 c -4.9,5.9 -7.4,9.7 -7.4,11.4 0,1.1 0.7,2.5 2.1,4.3 l 5.5,6.3 5.9,7.1 c 1.1,1 2.2,1.5 3.4,1.5 1.8,0 4.9,-2.8 9.6,-8.4 4.7,-5.6 6.9,-9.4 6.9,-11.4 -0.1,-1.3 -0.8,-2.8 -2,-4.4 l -5.2,-6.8 c -4.5,-5.7 -7.6,-8.5 -9.4,-8.5 -1.4,0 -4.5,3 -9.4,8.9"
   id="path5" />
			<path
   d="m 346,391.5 c -1.1,0 -2.9,-0.5 -2.9,-3.5 0,-0.9 0.4,-2.6 2.9,-3.1 3.6,-0.7 6.1,-2.2 7.3,-4.4 1.3,-2.3 2,-6.3 2,-12.1 v -80.8 c 0,-5.7 -1.6,-10.1 -4.7,-13.2 -3.1,-3.1 -7.6,-4.6 -13.4,-4.6 -3.2,0 -3.6,-2 -3.6,-3.2 0,-1.8 0.9,-2.6 1.7,-2.9 0.9,-0.4 2.7,-0.6 5.6,-0.6 l 14.1,0.2 c 3.4,0 6.2,-0.1 8.6,-0.2 3.6,-0.2 8.7,-0.6 16,-1.3 9.1,-0.9 16.5,-1.3 21.9,-1.3 21.1,0 38.2,5.5 51,16.3 12.8,10.9 19.3,25.5 19.3,43.5 0,23.1 -8.7,41.8 -25.8,55.5 -12.6,10 -27,15.1 -42.7,15.1 -2.6,0 -7.9,-0.2 -15.7,-0.7 -4.4,-0.2 -9,-0.4 -13.7,-0.4 -11,0 -18.3,0.3 -21.9,0.9 -3.1,0.6 -5,0.8 -6,0.8 z m -5.2,-126.9 c -3.2,0 -4.5,0.2 -5,0.5 -0.3,0.1 -0.7,0.5 -0.7,1.5 0,0.9 0.3,1.7 2.1,1.7 6.2,0 11.1,1.7 14.5,5 3.4,3.4 5.2,8.2 5.2,14.3 v 80.8 c 0,6.1 -0.7,10.3 -2.2,12.8 -1.5,2.6 -4.3,4.3 -8.4,5.1 -1.5,0.3 -1.7,1 -1.7,1.6 0,2 0.9,2 1.4,2 0.9,0 2.8,-0.2 5.6,-0.7 3.7,-0.6 10.9,-0.9 22.1,-0.9 4.7,0 9.3,0.1 13.8,0.4 7.8,0.5 13.1,0.7 15.6,0.7 15.4,0 29.5,-5 41.8,-14.8 16.8,-13.4 25.3,-31.7 25.3,-54.3 0,-17.5 -6.3,-31.8 -18.7,-42.3 -12.5,-10.6 -29.3,-15.9 -50,-15.9 -5.3,0 -12.7,0.4 -21.8,1.3 -7.3,0.7 -12.4,1.1 -16.1,1.3 -2.4,0.1 -5.3,0.2 -8.7,0.2 z m 60.7,119.5 c -13.6,0 -21.5,-3.8 -23.7,-11.3 v -0.1 l -1.1,-8.5 v -81.5 c 0,-6.8 1.1,-10.9 3.3,-12.4 2.6,-1.8 7.1,-2.7 13.9,-2.7 16.2,0 29.5,5.7 39.8,17 10.2,11.2 15.4,26 15.4,43.8 0,17 -4.3,30.7 -12.8,40.7 -8.6,9.9 -20.3,15 -34.8,15 z m -22.2,-11.7 c 2,6.7 9.4,10.2 22.2,10.2 14,0 25.3,-4.9 33.6,-14.6 8.2,-9.7 12.4,-23.1 12.4,-39.7 0,-17.4 -5,-31.8 -15,-42.7 -9.9,-10.9 -22.9,-16.5 -38.6,-16.5 -6.4,0 -10.7,0.8 -13,2.5 -1.2,0.8 -2.6,3.4 -2.6,11.2 V 364 Z"
   id="path6" />
			<path
   d="m 483.4,390.9 c -1.7,0 -2.7,-0.9 -2.7,-2.6 0,-1.1 0.6,-2 1.6,-2.6 l 3.2,-1.6 c 1.2,-0.6 2.2,-2.1 3.1,-4.4 0.9,-2.4 1.4,-5 1.4,-7.7 l -0.1,-3.9 v -31.4 c 0,-4.7 -0.5,-7.9 -1.4,-9.6 -0.9,-1.6 -2.5,-2.4 -4.8,-2.4 h -2.1 c -1.4,0 -2.4,-0.3 -3,-1 v 0 c -0.3,-0.4 -0.4,-1 -0.4,-1.8 0,-2 2.1,-3.4 6.3,-4.3 9.3,-2 16.7,-4.9 22,-8.9 v 0 c 0.8,-0.5 1.5,-0.8 2,-0.8 h 0.1 c 0.6,0 2,0.4 2,2.5 v 0.1 l -0.1,0.8 c -0.1,0.5 -0.1,1.9 -0.1,4.1 V 368 c 0,6.1 0.9,10.4 2.7,12.7 1.7,2.3 5.1,3.6 10,3.9 3.3,0.2 3.8,1.9 3.8,2.9 0,2.9 -4.6,3.2 -8.1,3.2 -0.7,0 -2.1,-0.1 -4.1,-0.3 l -7,-0.7 c -3.7,-0.3 -6.3,-0.5 -7.6,-0.5 -3.3,0 -7.7,0.4 -13.2,1.3 -1.6,0.3 -2.7,0.4 -3.5,0.4 z m -3.7,-68.1 c 0.3,0.3 0.9,0.5 1.8,0.5 h 2.1 c 3,0 5,1.1 6.2,3.2 1.1,2 1.6,5.4 1.6,10.4 v 31.4 l 0.1,3.9 c 0,2.9 -0.5,5.7 -1.5,8.3 -1,2.7 -2.3,4.5 -3.9,5.2 l -3.2,1.6 c -0.7,0.4 -0.8,0.9 -0.8,1.2 0,0.7 0.2,1 1.2,1 0.7,0 1.7,-0.1 3,-0.4 5.6,-0.9 10.1,-1.3 13.4,-1.3 1.3,0 3.9,0.2 7.7,0.5 l 7,0.7 c 1.9,0.2 3.3,0.3 3.9,0.3 6.1,0 6.6,-1.3 6.6,-1.7 0,-0.3 0,-1.3 -2.3,-1.4 -5.4,-0.3 -9.1,-1.8 -11.1,-4.5 -2,-2.6 -3,-7.1 -3,-13.6 v -52.5 c 0,-2.3 0,-3.7 0.1,-4.2 l 0.1,-0.8 c 0,-0.9 -0.3,-0.9 -0.6,-0.9 -0.1,0 -0.4,0.1 -1.1,0.5 -5.5,4.1 -13,7.1 -22.5,9.1 -3.3,0.7 -5.1,1.7 -5.1,2.8 0.1,0.4 0.2,0.7 0.3,0.7 z"
   id="path7" />
			<g
   id="g8">
				<path
   d="m 497.2,305 c -1.4,0 -2.7,-0.6 -3.9,-1.7 l -0.1,-0.1 -5.9,-7.1 -5.5,-6.2 c -1.6,-1.9 -2.3,-3.5 -2.3,-4.8 0,-1.2 0.8,-3.7 7.5,-11.9 6.7,-8.1 8.8,-9.2 9.9,-9.2 1.3,0 3.7,0.9 10,8.8 l 5.2,6.8 c 1.3,1.7 2.1,3.3 2.2,4.8 0.1,2.2 -2.2,6.1 -7,11.9 -6.4,7.8 -8.8,8.7 -10.1,8.7 z m -2.8,-2.8 c 0.9,0.8 1.9,1.3 2.8,1.3 0.8,0 3.1,-1.1 9,-8.1 5.6,-6.8 6.7,-9.6 6.7,-10.9 -0.1,-1.2 -0.7,-2.5 -1.8,-3.9 l -5.2,-6.8 c -5.7,-7.2 -7.9,-8.2 -8.7,-8.2 -0.4,0 -2.1,0.6 -8.8,8.6 -6.3,7.5 -7.2,10.1 -7.2,10.9 0,0.6 0.3,1.8 1.9,3.8 l 5.5,6.2 z"
   id="path8" />
			</g>
			<path
   d="m 570.7,391 c -2.1,0 -4.6,-0.2 -7.4,-0.5 -7,-0.9 -11.8,-1.3 -14.4,-1.3 -3.6,0 -7.7,0.3 -12.4,1 -2.2,0.3 -3.8,0.5 -4.7,0.5 -2.8,0 -3.1,-1.9 -3.1,-2.7 0,-0.8 0.4,-2 2,-2.7 3,-1.1 4.9,-2.3 5.7,-3.6 0.5,-0.9 1.2,-2.8 1.2,-7.3 l 0.1,-3.1 v -32.7 l -0.1,-3.6 c 0,-4.3 -0.4,-7.3 -1.3,-8.9 -0.8,-1.4 -2.2,-2.1 -4.3,-2.1 h -4.3 c -0.8,0 -1.5,-0.3 -2,-0.8 -0.4,-0.4 -0.7,-1.1 -0.7,-1.9 0,-1.9 1,-2.7 1.8,-3.2 1,-0.5 3.7,-1.3 8.4,-2.4 7.6,-1.8 14.1,-4.4 19.2,-8 0.6,-0.5 1.1,-0.7 1.6,-0.7 0.6,0 1,0.2 1.2,0.4 0.5,0.4 0.7,1.1 0.7,2.1 l -0.3,4.7 -0.1,5.2 0.5,3.4 c 0.2,0.5 0.4,0.6 0.5,0.6 0.1,0 0.7,-0.4 2.3,-2.2 5.8,-7.1 13.6,-10.7 23.1,-10.7 10.3,0 17.8,3.2 22.2,9.4 4.4,6.2 6.6,16.5 6.6,30.6 v 18.8 c 0,4 0.2,6.6 0.6,8 0.4,1.3 1.3,2.6 2.7,3.8 2.1,1.7 4.8,2.7 8.1,3.1 3,0.4 3.6,1.8 3.6,3 0,3.6 -5.6,3.6 -7.4,3.6 -0.9,0 -2.3,-0.1 -4.1,-0.4 l -6,-0.7 c -2.7,-0.3 -4.8,-0.4 -6.3,-0.4 -5.8,0 -10.5,0.4 -14,1.1 -1.5,0.3 -2.8,0.4 -3.9,0.4 -1.8,0 -2.8,-1 -2.8,-2.8 0,-0.9 0.5,-2.2 2.6,-3 2.5,-0.9 4.2,-2.2 5.1,-4 0.9,-1.9 1.3,-5.1 1.3,-9.7 v -21.9 c 0,-8.2 -1.6,-14.8 -4.9,-19.6 -3.2,-4.7 -7.5,-7.1 -13.1,-7.1 -5,0 -9,1.4 -12,4.1 -3,2.7 -4.5,6.2 -4.5,10.6 v 31 c 0,5.5 1,9.5 3,12 2,2.5 5.5,3.9 10.3,4.3 2.9,0.3 3.3,2 3.3,2.9 0.4,1.3 -0.1,3.4 -3.6,3.4 z m -21.9,-3.3 c 2.7,0 7.6,0.4 14.6,1.3 2.8,0.3 5.2,0.5 7.3,0.5 2.2,0 2.5,-0.9 2.5,-1.8 0,-0.3 0,-1.2 -1.9,-1.4 -5.2,-0.4 -9.1,-2.1 -11.3,-4.9 -2.2,-2.8 -3.4,-7.1 -3.4,-13 v -31 c 0,-4.8 1.7,-8.7 5,-11.7 3.3,-3 7.7,-4.5 13,-4.5 6,0 10.9,2.6 14.4,7.7 3.4,5 5.2,11.9 5.2,20.4 v 21.9 c 0,4.9 -0.5,8.3 -1.5,10.4 -1,2.2 -3,3.8 -5.9,4.8 -1.6,0.6 -1.6,1.4 -1.6,1.6 0,0.9 0.3,1.3 1.3,1.3 1,0 2.2,-0.1 3.6,-0.4 3.6,-0.7 8.4,-1.1 14.3,-1.1 1.6,0 3.7,0.1 6.5,0.4 l 6.1,0.7 c 1.8,0.2 3,0.3 3.9,0.3 2.7,0 5.8,-0.3 5.8,-2 0,-0.3 0,-1.2 -2.2,-1.5 -3.6,-0.4 -6.6,-1.5 -8.9,-3.4 -1.7,-1.4 -2.8,-2.9 -3.2,-4.5 -0.5,-1.5 -0.7,-4.3 -0.7,-8.4 v -18.8 c 0,-13.8 -2.1,-23.8 -6.3,-29.7 -4.2,-5.8 -11.2,-8.8 -21,-8.8 -9,0 -16.4,3.4 -21.9,10.1 -2.2,2.6 -3.1,2.9 -3.7,2.8 -0.6,-0.1 -1.4,-0.4 -1.8,-1.7 v -0.1 l -0.6,-3.6 0.1,-5.4 0.3,-4.7 c 0,-0.8 -0.2,-0.9 -0.2,-1 v 0 c 0,0 0,0 -0.1,0 h -0.1 c -0.2,0 -0.4,0.1 -0.7,0.4 h -0.1 c -5.3,3.6 -11.9,6.4 -19.7,8.2 -5.5,1.4 -7.4,2 -8,2.3 -0.4,0.2 -1,0.6 -1,1.8 0,0.4 0.1,0.7 0.2,0.8 l 0.1,0.1 c 0.1,0.1 0.2,0.3 0.8,0.3 h 4.3 c 2.7,0 4.6,1 5.6,3 1,1.8 1.4,5 1.4,9.6 l 0.1,3.6 v 32.7 l -0.1,3.1 c 0,3.9 -0.5,6.5 -1.4,8 -1,1.6 -3.1,2.9 -6.4,4.2 -1,0.4 -1.1,0.9 -1.1,1.2 0,0.6 0.1,1.2 1.6,1.2 0.5,0 1.8,-0.1 4.4,-0.5 4.6,-0.4 8.8,-0.8 12.4,-0.8 z m 9.9,-64.1 z m 0.1,0 z"
   id="path9" />
			<path
   d="m 670.2,393.3 c -11.7,0 -21.6,-3.8 -29.5,-11.3 -7.8,-7.5 -11.8,-17 -11.8,-28.3 0,-11.8 4.3,-22.1 12.9,-30.4 8.6,-8.3 19.1,-12.6 31.2,-12.6 11.9,0 21.8,3.8 29.5,11.3 7.7,7.5 11.7,17.2 11.7,28.8 0,12 -4.3,22.1 -12.6,30.2 -8.4,8.2 -19,12.3 -31.4,12.3 z m 2.8,-81 c -11.8,0 -21.9,4.1 -30.2,12.1 -8.3,8.1 -12.4,17.9 -12.4,29.3 0,10.9 3.8,20 11.3,27.2 7.5,7.2 17.1,10.8 28.4,10.8 12.1,0 22.3,-3.9 30.3,-11.7 8.1,-7.8 12.2,-17.6 12.2,-29.1 0,-11.2 -3.8,-20.5 -11.2,-27.7 -7.3,-7.3 -16.9,-10.9 -28.4,-10.9 z m 3.5,75.9 c -7.9,0 -14.7,-4.4 -20.3,-12.9 -5.5,-8.5 -8.3,-18.8 -8.3,-30.6 0,-8.7 1.8,-15.7 5.4,-20.9 3.7,-5.3 8.7,-7.9 14.9,-7.9 8,0 14.9,4.5 20.5,13.5 5.5,8.8 8.3,19.7 8.3,32.4 0,7.7 -1.9,14 -5.7,18.9 -3.8,4.9 -8.8,7.5 -14.8,7.5 z m -8.3,-70.8 c -5.8,0 -10.2,2.4 -13.6,7.3 -3.4,4.9 -5.1,11.6 -5.1,20 0,11.5 2.7,21.5 8,29.7 5.3,8.1 11.6,12.2 19,12.2 5.6,0 10,-2.2 13.6,-6.9 3.5,-4.6 5.3,-10.7 5.3,-18 0,-12.4 -2.7,-23 -8,-31.6 -5.3,-8.4 -11.7,-12.7 -19.2,-12.7 z"
   id="path10" />
			<path
   d="m 765.6,391.2 c -0.7,0 -1.7,-0.1 -2.7,-0.3 -6.2,-0.9 -12.6,-1.4 -19,-1.4 -3.4,0 -6.5,0.1 -9.3,0.4 l -5.8,0.6 c -1.1,0.1 -2.2,0.2 -3.3,0.2 -2.2,0 -3.4,-1.2 -3.4,-3.2 0,-1.1 0.5,-2.4 2.9,-3 4.5,-1.1 6.7,-5.4 6.7,-13.1 l -0.1,-3.9 v -33.2 c 0,-4.2 -0.5,-7.1 -1.5,-8.4 -1,-1.3 -3.3,-2.1 -6.8,-2.4 -2.5,-0.2 -2.8,-1.8 -2.8,-2.8 0,-1 0.4,-2.8 3.2,-3.2 8.4,-1.3 15.6,-3.7 21.5,-7.1 l 3.6,-2.1 c 0.6,-0.4 1.2,-0.6 1.8,-0.6 0.7,0 2.2,0.3 2.2,2.8 0,0.3 0,0.8 -0.1,1.4 0,0.4 0,0.8 -0.1,1.3 l -0.3,5.2 -0.4,5.7 0.1,0.9 c 0.2,0.6 0.5,0.7 0.6,0.8 0.2,-0.1 1,-0.7 3.4,-4.1 1.7,-2.4 4.3,-5 7.9,-7.7 4.8,-3.8 6.7,-4.2 7.6,-4.2 2.3,0 5.6,1.6 10,5 4.5,3.5 6.6,5.9 6.7,7.8 0,0.4 0,1.1 -3.1,6.9 -2.8,5.2 -5.1,7.6 -7.4,7.6 -1,0 -1.9,-0.4 -2.7,-1.1 l -2.6,-2.3 c -3,-2.8 -6.4,-4.2 -10.3,-4.2 -6.8,0 -10.1,4.5 -10.1,13.7 v 26.1 c 0,9.4 4.3,14.6 13.1,15.7 2.9,0.4 3.5,1.9 3.5,3 -0.1,2.1 -1.1,3.2 -3,3.2 z M 743.8,388 c 6.5,0 13,0.5 19.3,1.4 1,0.2 1.8,0.3 2.5,0.3 0.8,0 1.4,-0.3 1.4,-1.6 0,-0.3 0,-1.2 -2.2,-1.5 -9.6,-1.3 -14.4,-7.1 -14.4,-17.3 v -26.1 c 0,-10.1 3.9,-15.2 11.7,-15.2 4.2,0 8,1.5 11.3,4.6 l 2.6,2.3 c 0.5,0.5 1.1,0.7 1.7,0.7 1.1,0 3.1,-1.2 6.1,-6.7 2.6,-4.8 2.9,-5.9 2.9,-6.2 0,-0.7 -0.9,-2.6 -6.1,-6.6 -4.1,-3.1 -7.1,-4.7 -9,-4.7 -0.6,0 -2.3,0.5 -6.7,3.9 -3.4,2.6 -5.9,5.1 -7.5,7.4 -3.1,4.5 -4.1,4.9 -4.7,4.8 -0.6,-0.1 -1.6,-0.4 -2,-2 v -0.1 l -0.1,-1.1 0.4,-5.8 0.3,-5.2 c 0,-0.5 0,-0.9 0.1,-1.3 0,-0.6 0,-1.1 0,-1.4 0,-1.3 -0.4,-1.3 -0.6,-1.3 -0.3,0 -0.6,0.1 -1,0.3 l -3.6,2.1 c -6.1,3.5 -13.5,5.9 -22.1,7.2 -1.6,0.2 -1.9,1 -1.9,1.7 0,0.5 0.1,1.1 1.4,1.2 4,0.3 6.6,1.3 7.9,2.9 1.3,1.6 1.9,4.6 1.9,9.3 v 33.2 l 0.1,3.9 c 0,8.4 -2.7,13.3 -7.9,14.6 -1.7,0.4 -1.7,1.2 -1.7,1.5 0,1.2 0.5,1.7 1.8,1.7 1,0 2.1,-0.1 3.2,-0.2 l 5.8,-0.6 c 2.5,0 5.7,-0.1 9.1,-0.1 z m 8.9,-62 z"
   id="path11" />
		</g>
	</g>
</g>
<g
   id="Calque_4"
   transform="translate(-298.97344,-258.4)">
</g>
</svg>
